<svg xmlns="http://www.w3.org/2000/svg" viewBox="5.5 -0.5 80 80" width="150px" height="150px">
    <defs>
        <style>.cls-1{fill:#3fae2a;}</style>
    </defs>
    <path class="cls-1" d="M24.46,57.65v-.2a36.79,36.79,0,0,1,.5-5.8v-.2l-.2-.1a49.67,49.67,0,0,1-5.2-2.5l-.2-.1-.1.2a53.76,53.76,0,0,0-2.8,7l-.1.2.2.1a39.14,39.14,0,0,0,7.6,1.4Z"/>
    <path class="cls-1" d="M29.66,23.45h0c-1.5,0-2.9.1-4.4.2a33.92,33.92,0,0,0,.8,4.4A20.36,20.36,0,0,1,29.66,23.45Z"/>
    <path class="cls-1" d="M24.46,59.45v-.2h-.2a51.94,51.94,0,0,1-6.5-1.1l-.6-.1.3.5a34.87,34.87,0,0,0,7.1,7.8l.4.4v-.7A51.43,51.43,0,0,1,24.46,59.45Z"/>
    <path class="cls-1" d="M35,7.75a33.78,33.78,0,0,0-7.4,3.6,47,47,0,0,1,5.1,1.2A52.38,52.38,0,0,1,35,7.75Z"/>
    <path class="cls-1" d="M45.86,6c-1.3,0-2.6.1-3.8.2a39.81,39.81,0,0,1,5.1,4.1l1.3,1.2-1.3,1.3a34.66,34.66,0,0,0-3.2,3.4v.1a6.12,6.12,0,0,0-.5.6,19.27,19.27,0,0,1,2.4-.1,23,23,0,1,1,0,46,22.39,22.39,0,0,1-12-3.4,45.33,45.33,0,0,1-5.2.3,19.27,19.27,0,0,1-2.4-.1,78.24,78.24,0,0,0,.7,8.1,33.26,33.26,0,0,0,18.9,5.8,33.75,33.75,0,1,0,0-67.5Z"/>
    <path class="cls-1" d="M41.36,14c.7-.8,1.4-1.6,2.1-2.3a58.59,58.59,0,0,0-5-3.7,41.8,41.8,0,0,0-2.8,5.6c1.5.6,3,1.2,4.5,1.9C40.76,14.65,41.26,14.05,41.36,14Z"/>
    <path class="cls-1" d="M18.46,33.25l.1.2.2-.1a50.41,50.41,0,0,1,4.9-3.1l.2-.1V30a38.39,38.39,0,0,1-1.1-5.9v-.2h-.2a43.62,43.62,0,0,0-7.3,2l-.2.1.1.2A30.3,30.3,0,0,0,18.46,33.25Z"/>
    <path class="cls-1" d="M18.06,36.45l-.2.2a47,47,0,0,0-5.1,4.9l-.2.2.2.2a58.38,58.38,0,0,0,5.6,4.2l.2.1.1-.2a45.3,45.3,0,0,1,3-4.6l.1-.2-.1-.1a52,52,0,0,1-3.5-4.4Z"/>
    <path class="cls-1" d="M31.36,57.75H32l-.5-.4a20.73,20.73,0,0,1-4.6-5.2v-.1l-.4-.2v.3a45.53,45.53,0,0,0-.4,5.3v.2h.2c.8,0,1.6.1,2.4.1A12.19,12.19,0,0,0,31.36,57.75Z"/>
    <path class="cls-1" d="M30.26,20.45a39.43,39.43,0,0,1,1.4-4.9,46.94,46.94,0,0,0-6.5-1.4,48.47,48.47,0,0,0-.1,6.6A44.05,44.05,0,0,1,30.26,20.45Z"/>
    <path class="cls-1" d="M33.46,20.35a29.18,29.18,0,0,1,4.7-2.3,27.49,27.49,0,0,0-3.6-1.5C34.16,17.75,33.76,19.05,33.46,20.35Z"/>
    <path class="cls-1" d="M17.76,47.75l-.2-.1a57.36,57.36,0,0,1-5-3.6l-.5-.4.1.6a31.56,31.56,0,0,0,2.7,9.4l.2.5.2-.5a55.47,55.47,0,0,1,2.4-5.6Z"/>
    <path class="cls-1" d="M22.06,15.75a33.47,33.47,0,0,0-5.2,6.7c1.7-.5,3.5-.9,5.3-1.3C22.06,19.35,22.06,17.55,22.06,15.75Z"/>
    <path class="cls-1" d="M23.06,39.45v-.6a23.54,23.54,0,0,1,1-6l.2-.6-.5.3c-1.3.8-2.6,1.6-3.9,2.5l-.2.1.3.2c.9,1.2,1.8,2.5,2.8,3.6Z"/>
    <path class="cls-1" d="M23.36,43l-.1-.6-.3.5c-.9,1.3-1.8,2.7-2.6,4.1l-.1.2.2.1c1.4.8,2.9,1.5,4.4,2.2l.5.2-.2-.5A23.11,23.11,0,0,1,23.36,43Z"/>
    <path class="cls-1" d="M16.76,34.85l.2-.1-.1-.2a54.49,54.49,0,0,1-2.9-5.3l-.2-.5-.2.6a33.77,33.77,0,0,0-1.6,9.5v.6l.4-.4A24.93,24.93,0,0,1,16.76,34.85Z"/>
</svg>
